<?xml version="1.0" encoding="UTF-8"?>
<svg id="Camada_1" data-name="Camada 1" xmlns="http://www.w3.org/2000/svg" viewBox="0 0 967.5 432.98">
  <defs>
    <style>
      .cls-1 {
        fill: #1d1d1b;
        stroke-width: 0px;
      }
    </style>
  </defs>
  <path class="cls-1" d="m214.79,432.98c-17.13,0-31.88-6.33-43.85-18.82-11.62-12.64-17.47-27.46-17.47-44.12v-74.05H61.78c-3.21,0-7.6-.31-13.4-.96-14.32-2.09-25.98-8.27-34.9-18.4-8.94-10.16-13.48-21.78-13.48-34.56,0-8.36,1.55-15.68,4.6-21.78,1.07-2.3,3.27-6.38,6.63-12.31l.32-.51L126.2,44.29c11.05-15.75,21.35-26.68,31.5-33.41,10.36-6.88,22.13-10.54,34.99-10.88h.01c28.51,0,49.43,7.93,62.34,23.56,9.57,11.59,15.58,28.03,17.9,48.93h43.11c26.38,0,50.26,5.74,70.98,17.07,20.8,11.37,37.17,27.1,48.65,46.73h0c11.46,19.62,17.27,41.72,17.27,65.71-.81,34.43-12.04,63.29-33.39,85.92-21.28,22.57-50.26,36.22-86.12,40.54-7.29.95-14.56,1.43-21.56,1.43h-36.46v41.08c0,18.05-6.17,33.11-18.35,44.77-11.4,11.41-25.66,17.24-42.27,17.24ZM22.04,214.48c-3.07,5.41-5.12,9.21-6.09,11.31-2.24,4.48-3.34,9.91-3.34,16.29,0,9.76,3.38,18.33,10.33,26.23,6.98,7.93,15.83,12.58,27.04,14.23,5.05.56,9.09.86,11.8.86h104.3v86.65c0,13.6,4.6,25.21,14.06,35.5,9.55,9.95,20.91,14.84,34.66,14.84s24.28-4.47,33.45-13.64c9.83-9.42,14.56-21.08,14.56-35.77v-53.69h49.07c6.45,0,13.18-.45,19.99-1.33,32.92-3.97,59.31-16.31,78.52-36.68,19.14-20.3,29.22-46.35,29.95-77.42,0-21.57-5.23-41.55-15.55-59.2-10.31-17.63-25.05-31.77-43.81-42.03-18.85-10.3-40.7-15.52-64.94-15.52h-54.7l-.44-5.83c-1.59-21.04-6.84-37.08-15.58-47.68-10.4-12.59-28.06-18.98-52.47-18.98-10.44.28-19.71,3.15-28.18,8.77-8.69,5.76-18.16,15.91-28.15,30.15L22.04,214.48Z"/>
  <g>
    <path class="cls-1" d="m593.35,248.8v44.45c0,7.02-1.59,12.29-4.78,15.8-3.18,3.51-7.39,5.26-12.61,5.26s-9.16-1.76-12.31-5.26c-3.14-3.51-4.71-8.78-4.71-15.8v-53.26c0-8.41-.29-14.94-.86-19.59-.57-4.65-2.12-8.47-4.65-11.45-2.53-2.98-6.53-4.47-12-4.47-10.94,0-18.14,3.76-21.61,11.27-3.47,7.51-5.2,18.29-5.2,32.32v45.18c0,6.94-1.57,12.18-4.71,15.73-3.14,3.55-7.28,5.32-12.43,5.32s-9.2-1.77-12.43-5.32c-3.22-3.55-4.84-8.8-4.84-15.73v-95.63c0-6.28,1.45-11.06,4.35-14.32,2.9-3.27,6.71-4.9,11.45-4.9s8.39,1.53,11.45,4.59c3.06,3.06,4.59,7.28,4.59,12.67v3.18c5.79-6.94,12-12.04,18.61-15.3,6.61-3.27,13.96-4.9,22.04-4.9s15.63,1.67,21.67,5.02c6.04,3.35,11.02,8.41,14.94,15.18,5.63-6.86,11.67-11.94,18.12-15.25,6.45-3.3,13.59-4.96,21.43-4.96,9.14,0,17.02,1.8,23.63,5.39,6.61,3.59,11.55,8.73,14.82,15.43,2.86,6.04,4.29,15.55,4.29,28.53v65.26c0,7.02-1.59,12.29-4.78,15.8-3.18,3.51-7.39,5.26-12.61,5.26s-9.2-1.77-12.43-5.32c-3.22-3.55-4.84-8.8-4.84-15.73v-56.2c0-7.18-.31-12.94-.92-17.26-.61-4.33-2.26-7.96-4.96-10.9-2.69-2.94-6.78-4.41-12.24-4.41-4.41,0-8.59,1.31-12.55,3.92-3.96,2.61-7.04,6.12-9.24,10.53-2.45,5.63-3.67,15.59-3.67,29.87Z"/>
    <path class="cls-1" d="m809.7,246.35c0,9.96-1.55,19.14-4.65,27.55-3.1,8.41-7.59,15.63-13.47,21.67-5.88,6.04-12.9,10.67-21.06,13.9-8.16,3.22-17.35,4.84-27.55,4.84s-19.22-1.63-27.31-4.9c-8.08-3.26-15.08-7.94-21-14.02-5.92-6.08-10.41-13.26-13.47-21.55-3.06-8.28-4.59-17.45-4.59-27.49s1.55-19.39,4.65-27.79c3.1-8.41,7.55-15.59,13.35-21.55,5.79-5.96,12.81-10.55,21.06-13.77,8.24-3.22,17.35-4.84,27.31-4.84s19.3,1.63,27.55,4.9c8.24,3.26,15.3,7.92,21.18,13.96,5.88,6.04,10.35,13.23,13.41,21.55,3.06,8.33,4.59,17.51,4.59,27.55Zm-33.55,0c0-13.63-3-24.24-9-31.83-6-7.59-14.06-11.39-24.18-11.39-6.53,0-12.29,1.7-17.26,5.08-4.98,3.39-8.82,8.39-11.51,15-2.69,6.61-4.04,14.32-4.04,23.14s1.33,16.37,3.98,22.9c2.65,6.53,6.45,11.53,11.39,15,4.94,3.47,10.75,5.2,17.45,5.2,10.12,0,18.18-3.81,24.18-11.45,6-7.63,9-18.19,9-31.65Z"/>
    <path class="cls-1" d="m845.75,147.78v51.06c6.28-6.53,12.69-11.53,19.22-15,6.53-3.47,14.61-5.2,24.24-5.2,11.1,0,20.84,2.63,29.2,7.9,8.37,5.27,14.86,12.9,19.47,22.9,4.61,10,6.92,21.86,6.92,35.57,0,10.12-1.29,19.41-3.86,27.85-2.57,8.45-6.31,15.78-11.2,21.98-4.9,6.2-10.83,11-17.81,14.39-6.98,3.39-14.67,5.08-23.09,5.08-5.14,0-9.97-.61-14.51-1.83-4.53-1.23-8.38-2.84-11.57-4.84-3.18-2-5.9-4.06-8.14-6.18-2.24-2.12-5.2-5.31-8.87-9.55v3.3c0,6.29-1.51,11.04-4.53,14.27-3.02,3.22-6.86,4.84-11.52,4.84s-8.51-1.61-11.32-4.84c-2.82-3.22-4.23-7.98-4.23-14.27v-145.95c0-6.77,1.37-11.9,4.1-15.37,2.73-3.47,6.55-5.2,11.45-5.2,5.15,0,9.11,1.65,11.88,4.96,2.77,3.3,4.16,8.02,4.16,14.14Zm1.59,99.3c0,13.31,3.04,23.53,9.12,30.67,6.08,7.14,14.06,10.71,23.94,10.71,8.4,0,15.65-3.65,21.73-10.96,6.08-7.3,9.13-17.77,9.13-31.4,0-8.82-1.27-16.41-3.8-22.78-2.53-6.37-6.12-11.28-10.77-14.75-4.65-3.47-10.08-5.2-16.29-5.2s-12.04,1.73-17.02,5.2c-4.98,3.47-8.89,8.49-11.75,15.06-2.86,6.57-4.29,14.39-4.29,23.45Z"/>
  </g>
  <path class="cls-1" d="m278.59,257.19h-104.24c-14.47,0-26.25-11.78-26.25-26.25v-45.73c0-7.91,3.51-15.32,9.63-20.32l52.11-42.6c9.62-7.87,23.59-7.87,33.22,0l52.14,42.6c6.13,5.01,9.64,12.41,9.64,20.33v45.72c0,14.47-11.78,26.25-26.25,26.25Zm-52.13-128.2c-3.07,0-6.13,1.03-8.64,3.07l-52.11,42.6c-3.18,2.6-5.01,6.45-5.01,10.56v45.73c0,7.52,6.12,13.64,13.64,13.64h104.24c7.52,0,13.64-6.12,13.64-13.64v-45.72c0-4.11-1.83-7.96-5.01-10.56l-52.14-42.6c-2.5-2.05-5.57-3.07-8.63-3.07Z"/>
  <g>
    <path class="cls-1" d="m950.62,188.95h-1.06v4.81c0,.63-.14,1.1-.42,1.4s-.64.45-1.09.45c-.48,0-.86-.16-1.12-.47s-.4-.77-.4-1.38v-11.52c0-.65.15-1.13.44-1.42.29-.29.77-.44,1.42-.44h4.93c.68,0,1.26.03,1.75.09s.92.18,1.31.35c.47.2.88.48,1.25.85s.63.79.82,1.28.28,1,.28,1.55c0,1.12-.31,2.01-.94,2.67s-1.58,1.14-2.86,1.42c.54.29,1.05.71,1.54,1.27.49.56.93,1.15,1.31,1.78.38.63.68,1.2.9,1.7s.32.86.32,1.05-.06.39-.19.59-.3.35-.52.46-.47.17-.76.17c-.34,0-.63-.08-.86-.24s-.43-.36-.6-.61c-.17-.25-.39-.61-.68-1.08l-1.21-2.02c-.44-.74-.83-1.31-1.17-1.69-.34-.39-.69-.65-1.05-.8s-.8-.21-1.34-.21Zm1.74-6.29h-2.8v4.11h2.72c.73,0,1.34-.06,1.84-.19.5-.13.88-.34,1.14-.64.26-.3.39-.72.39-1.25,0-.42-.11-.78-.32-1.1-.21-.32-.5-.55-.88-.71-.35-.15-1.05-.22-2.09-.22Z"/>
    <path class="cls-1" d="m952.75,202.75c-8.13,0-14.75-6.62-14.75-14.75s6.62-14.75,14.75-14.75,14.75,6.62,14.75,14.75-6.62,14.75-14.75,14.75Zm0-26.54c-6.5,0-11.79,5.29-11.79,11.79s5.29,11.79,11.79,11.79,11.79-5.29,11.79-11.79-5.29-11.79-11.79-11.79Z"/>
  </g>
</svg>