<?xml version="1.0" encoding="UTF-8"?>
<svg id="Camada_1" data-name="Camada 1" xmlns="http://www.w3.org/2000/svg" viewBox="0 0 967.7 423.22">
  <defs>
    <style>
      .cls-1 {
        fill: #c7d309;
      }

      .cls-1, .cls-2 {
        stroke-width: 0px;
      }

      .cls-2 {
        fill: #1e1e1c;
      }
    </style>
  </defs>
  <path class="cls-2" d="m426.79,134.07c-11.02-18.85-26.53-33.74-46.54-44.68-20.01-10.94-42.82-16.41-68.42-16.41h-49.18c-1.71-22.61-7.41-39.8-17.13-51.57C233.73,7.14,214.49,0,187.81,0c-11.79.31-22.42,3.61-31.88,9.89-9.47,6.28-19.47,16.95-30.02,32L10.47,206.19c-3.26,5.74-5.43,9.77-6.52,12.1-2.64,5.28-3.96,11.64-3.96,19.08,0,11.33,3.99,21.52,11.99,30.6,7.99,9.08,18.34,14.54,31.07,16.41,5.58.62,9.85.93,12.8.93h98.66v80.89c0,15.21,5.27,28.55,15.82,40.03,10.86,11.33,24.05,16.99,39.56,16.99s27.77-5.2,38.17-15.59c11.01-10.55,16.52-24.05,16.52-40.49v-47.71h43.05c6.83,0,13.81-.47,20.94-1.39,34.75-4.19,62.37-17.14,82.85-38.87,20.48-21.72,31.11-49.1,31.88-82.15,0-23.12-5.51-44.1-16.52-62.95Z"/>
  <path class="cls-1" d="m294.21,180.12v46.03c0,11.09-8.99,20.08-20.08,20.08h-104.95c-11.09,0-20.08-8.99-20.08-20.08v-46.03c0-6.03,2.71-11.73,7.37-15.55l52.46-42.88c7.39-6.04,18.02-6.05,25.41,0l52.49,42.89c4.67,3.81,7.38,9.52,7.38,15.55Z"/>
  <g>
    <g>
      <path class="cls-2" d="m591.01,244.14v44.75c0,7.07-1.6,12.37-4.81,15.9-3.21,3.53-7.44,5.3-12.7,5.3s-9.23-1.77-12.39-5.3c-3.17-3.53-4.75-8.84-4.75-15.9v-53.62c0-8.46-.29-15.04-.86-19.73-.58-4.68-2.14-8.52-4.68-11.52-2.55-3-6.58-4.5-12.08-4.5-11.01,0-18.27,3.78-21.76,11.34-3.49,7.56-5.24,18.41-5.24,32.54v45.49c0,6.99-1.58,12.27-4.75,15.84-3.16,3.58-7.33,5.36-12.51,5.36s-9.27-1.78-12.51-5.36c-3.25-3.58-4.87-8.86-4.87-15.84v-96.27c0-6.33,1.46-11.14,4.38-14.42,2.92-3.29,6.76-4.93,11.53-4.93s8.44,1.54,11.53,4.63c3.08,3.08,4.62,7.33,4.62,12.76v3.21c5.83-6.99,12.08-12.12,18.74-15.41,6.66-3.29,14.05-4.93,22.19-4.93s15.74,1.68,21.82,5.05c6.08,3.37,11.09,8.46,15.04,15.29,5.67-6.9,11.75-12.02,18.24-15.35,6.49-3.33,13.68-4.99,21.57-4.99,9.2,0,17.13,1.81,23.79,5.42,6.66,3.62,11.63,8.79,14.92,15.53,2.88,6.08,4.32,15.65,4.32,28.72v65.7c0,7.07-1.6,12.37-4.81,15.9-3.21,3.53-7.44,5.3-12.7,5.3s-9.27-1.78-12.51-5.36c-3.25-3.58-4.87-8.86-4.87-15.84v-56.58c0-7.23-.31-13.02-.93-17.38-.62-4.36-2.28-8.01-4.99-10.97-2.71-2.96-6.82-4.44-12.33-4.44-4.44,0-8.65,1.32-12.64,3.95-3.99,2.63-7.09,6.16-9.31,10.6-2.47,5.67-3.7,15.7-3.7,30.08Z"/>
      <path class="cls-2" d="m808.83,241.67c0,10.03-1.56,19.27-4.68,27.74-3.12,8.46-7.64,15.74-13.56,21.82-5.92,6.08-12.98,10.74-21.2,13.99-8.22,3.25-17.46,4.87-27.74,4.87s-19.35-1.64-27.49-4.93c-8.14-3.28-15.18-7.99-21.14-14.11-5.96-6.12-10.48-13.35-13.56-21.7-3.08-8.34-4.62-17.57-4.62-27.67s1.56-19.52,4.68-27.98c3.12-8.46,7.6-15.7,13.44-21.7,5.83-6,12.9-10.62,21.2-13.87,8.3-3.25,17.46-4.87,27.49-4.87s19.43,1.65,27.74,4.93c8.3,3.28,15.41,7.97,21.32,14.05,5.92,6.08,10.42,13.32,13.5,21.7,3.08,8.38,4.62,17.63,4.62,27.74Zm-33.78,0c0-13.72-3.02-24.41-9.06-32.05-6.04-7.64-14.16-11.47-24.35-11.47-6.58,0-12.37,1.71-17.38,5.12-5.01,3.41-8.88,8.44-11.59,15.1-2.71,6.66-4.07,14.42-4.07,23.3s1.34,16.48,4.01,23.05c2.67,6.58,6.49,11.61,11.46,15.1,4.97,3.5,10.83,5.24,17.57,5.24,10.19,0,18.3-3.84,24.35-11.52,6.04-7.69,9.06-18.31,9.06-31.87Z"/>
      <path class="cls-2" d="m845.12,142.44v51.4c6.33-6.57,12.78-11.61,19.35-15.1,6.57-3.49,14.7-5.24,24.41-5.24,11.17,0,20.98,2.65,29.4,7.95,8.43,5.3,14.96,12.99,19.6,23.05,4.64,10.07,6.96,22.01,6.96,35.81,0,10.19-1.3,19.54-3.89,28.04-2.58,8.51-6.35,15.88-11.27,22.13-4.93,6.24-10.91,11.07-17.93,14.48-7.03,3.41-14.77,5.11-23.24,5.11-5.18,0-10.04-.61-14.61-1.85-4.56-1.23-8.44-2.86-11.65-4.87-3.2-2.01-5.94-4.09-8.2-6.22-2.26-2.14-5.24-5.34-8.93-9.62v3.33c0,6.33-1.52,11.12-4.56,14.36-3.04,3.25-6.91,4.87-11.59,4.87s-8.57-1.62-11.4-4.87c-2.83-3.25-4.25-8.03-4.25-14.36v-146.94c0-6.82,1.38-11.98,4.13-15.47,2.75-3.49,6.6-5.24,11.52-5.24,5.18,0,9.17,1.66,11.96,4.99,2.79,3.33,4.19,8.07,4.19,14.24Zm1.6,99.97c0,13.4,3.06,23.69,9.18,30.88,6.13,7.19,14.16,10.79,24.1,10.79,8.46,0,15.76-3.68,21.88-11.04,6.13-7.35,9.19-17.89,9.19-31.62,0-8.88-1.28-16.52-3.83-22.93-2.54-6.41-6.16-11.36-10.85-14.85-4.68-3.49-10.15-5.24-16.4-5.24s-12.12,1.75-17.14,5.24c-5.01,3.5-8.95,8.55-11.83,15.16-2.88,6.62-4.32,14.49-4.32,23.61Z"/>
    </g>
    <g>
      <path class="cls-2" d="m950.7,183.88h-1.07v4.84c0,.64-.14,1.11-.42,1.41s-.65.45-1.1.45c-.49,0-.86-.16-1.13-.47s-.4-.78-.4-1.39v-11.59c0-.66.15-1.13.44-1.43s.77-.44,1.43-.44h4.96c.69,0,1.27.03,1.76.09s.92.18,1.32.35c.47.2.89.48,1.25.85s.64.8.83,1.29.28,1.01.28,1.56c0,1.12-.32,2.02-.95,2.69s-1.59,1.15-2.88,1.43c.54.29,1.06.71,1.55,1.27.49.56.93,1.16,1.32,1.79s.69,1.21.9,1.72.32.86.32,1.05-.06.4-.19.59-.3.35-.52.46-.47.17-.76.17c-.34,0-.63-.08-.86-.24s-.43-.36-.6-.61-.4-.61-.68-1.09l-1.22-2.03c-.44-.75-.83-1.32-1.18-1.71-.35-.39-.7-.66-1.05-.8s-.81-.22-1.35-.22Zm1.75-6.33h-2.82v4.14h2.73c.73,0,1.35-.06,1.85-.19s.88-.34,1.15-.65.4-.72.4-1.26c0-.42-.11-.79-.32-1.1s-.51-.56-.88-.71c-.36-.15-1.06-.23-2.11-.23Z"/>
      <path class="cls-2" d="m952.85,197.78c-8.19,0-14.85-6.66-14.85-14.85s6.66-14.85,14.85-14.85,14.85,6.66,14.85,14.85-6.66,14.85-14.85,14.85Zm0-26.72c-6.55,0-11.87,5.32-11.87,11.87s5.32,11.87,11.87,11.87,11.87-5.32,11.87-11.87-5.32-11.87-11.87-11.87Z"/>
    </g>
  </g>
</svg>